<mxfile host="65bd71144e">
    <diagram name="Page-1" id="hHpF1baUSTz2clY-Ota8">
        <mxGraphModel dx="1178" dy="541" grid="0" gridSize="1" guides="1" tooltips="1" connect="1" arrows="1" fold="1" page="1" pageScale="1" pageWidth="1100" pageHeight="850" background="#FFFFFF" math="0" shadow="0">
            <root>
                <mxCell id="0"/>
                <mxCell id="1" parent="0"/>
                <mxCell id="59" style="edgeStyle=orthogonalEdgeStyle;html=1;exitX=1;exitY=0.25;exitDx=0;exitDy=0;strokeColor=#000000;" parent="1" source="AFJ6fUOBSR2v7E0Lf3oa-3" target="53" edge="1">
                    <mxGeometry relative="1" as="geometry"/>
                </mxCell>
                <mxCell id="60" style="edgeStyle=orthogonalEdgeStyle;html=1;exitX=1;exitY=1;exitDx=0;exitDy=0;strokeColor=#000000;" parent="1" source="AFJ6fUOBSR2v7E0Lf3oa-3" target="41" edge="1">
                    <mxGeometry relative="1" as="geometry"/>
                </mxCell>
                <mxCell id="61" style="edgeStyle=orthogonalEdgeStyle;html=1;exitX=0;exitY=0.5;exitDx=0;exitDy=0;strokeColor=#000000;entryX=0.5;entryY=0;entryDx=0;entryDy=0;" parent="1" source="AFJ6fUOBSR2v7E0Lf3oa-3" target="27" edge="1">
                    <mxGeometry relative="1" as="geometry"/>
                </mxCell>
                <mxCell id="62" style="edgeStyle=orthogonalEdgeStyle;html=1;exitX=0;exitY=0.75;exitDx=0;exitDy=0;strokeColor=#000000;" parent="1" source="AFJ6fUOBSR2v7E0Lf3oa-3" target="47" edge="1">
                    <mxGeometry relative="1" as="geometry"/>
                </mxCell>
                <mxCell id="63" style="edgeStyle=orthogonalEdgeStyle;html=1;exitX=0.75;exitY=1;exitDx=0;exitDy=0;strokeColor=#000000;" parent="1" source="AFJ6fUOBSR2v7E0Lf3oa-3" target="35" edge="1">
                    <mxGeometry relative="1" as="geometry"/>
                </mxCell>
                <mxCell id="AFJ6fUOBSR2v7E0Lf3oa-3" value="&lt;p class=&quot;MsoNormal&quot; style=&quot;font-size: 17px;&quot;&gt;IntList class&lt;/p&gt;" style="rounded=1;whiteSpace=wrap;html=1;fillStyle=auto;strokeColor=#000000;fontColor=#000000;fillColor=#ffffff;fontSize=17;fontStyle=1" parent="1" vertex="1">
                    <mxGeometry x="375" y="30" width="350" height="60" as="geometry"/>
                </mxCell>
                <mxCell id="79" value="" style="edgeStyle=none;html=1;" parent="1" edge="1">
                    <mxGeometry relative="1" as="geometry">
                        <mxPoint x="79" y="220" as="targetPoint"/>
                        <mxPoint x="84" y="220" as="sourcePoint"/>
                    </mxGeometry>
                </mxCell>
                <mxCell id="26" style="rounded=0;orthogonalLoop=1;jettySize=auto;html=1;exitX=0.5;exitY=1;exitDx=0;exitDy=0;fontSize=17;fontColor=#000000;startArrow=none;edgeStyle=orthogonalEdgeStyle;startFill=0;endArrow=none;endFill=0;strokeColor=#000000;" parent="1" source="31" target="28" edge="1">
                    <mxGeometry relative="1" as="geometry"/>
                </mxCell>
                <mxCell id="27" value="&lt;span style=&quot;text-indent: -24px;&quot;&gt;IntList()&lt;/span&gt;&lt;br style=&quot;text-indent: -24px;&quot;&gt;&lt;span style=&quot;text-indent: -24px; font-weight: normal;&quot;&gt;Copy Const&lt;/span&gt;" style="rounded=1;whiteSpace=wrap;html=1;fillStyle=auto;strokeColor=#000000;fontColor=#000000;fillColor=#ffffff;fontSize=13;fontStyle=1" parent="1" vertex="1">
                    <mxGeometry x="92" y="200" width="80" height="40" as="geometry"/>
                </mxCell>
                <mxCell id="28" value="&lt;p class=&quot;MsoNormal&quot;&gt;&lt;/p&gt;&lt;span&gt;IntList&lt;br&gt;(const IntList &amp;amp;obj&lt;/span&gt;&lt;span&gt;&lt;br&gt;&lt;/span&gt;" style="rounded=0;whiteSpace=wrap;html=1;fillStyle=auto;strokeColor=#000000;fontSize=11;fontColor=#000000;fillColor=#ffffff;align=left;verticalAlign=top;" parent="1" vertex="1">
                    <mxGeometry x="93" y="320" width="79" height="80" as="geometry"/>
                </mxCell>
                <mxCell id="29" value="" style="endArrow=classic;html=1;rounded=1;strokeWidth=1;fontSize=17;fontColor=#000000;startSize=6;endSize=4;entryX=1.026;entryY=0.435;entryDx=0;entryDy=0;entryPerimeter=0;exitX=-0.109;exitY=0.496;exitDx=0;exitDy=0;exitPerimeter=0;strokeColor=#000000;" parent="1" source="31" target="31" edge="1">
                    <mxGeometry width="50" height="50" relative="1" as="geometry">
                        <mxPoint x="92" y="290" as="sourcePoint"/>
                        <mxPoint x="182" y="270" as="targetPoint"/>
                        <Array as="points">
                            <mxPoint x="112" y="280"/>
                            <mxPoint x="119" y="290"/>
                            <mxPoint x="142" y="290"/>
                            <mxPoint x="152" y="280"/>
                        </Array>
                    </mxGeometry>
                </mxCell>
                <mxCell id="30" value="" style="rounded=0;orthogonalLoop=1;jettySize=auto;html=1;exitX=0.5;exitY=1;exitDx=0;exitDy=0;fontSize=17;fontColor=#000000;endArrow=none;edgeStyle=orthogonalEdgeStyle;startArrow=none;startFill=0;endFill=0;strokeColor=#000000;" parent="1" source="27" target="31" edge="1">
                    <mxGeometry relative="1" as="geometry">
                        <mxPoint x="184" y="240" as="sourcePoint"/>
                        <mxPoint x="193" y="320" as="targetPoint"/>
                    </mxGeometry>
                </mxCell>
                <mxCell id="31" value="" style="html=1;whiteSpace=wrap;aspect=fixed;shape=isoRectangle;fillStyle=auto;strokeColor=#000000;fontSize=17;fontColor=#000000;fillColor=#ffffff;" parent="1" vertex="1">
                    <mxGeometry x="122" y="270" width="20" height="12" as="geometry"/>
                </mxCell>
                <mxCell id="34" style="rounded=0;orthogonalLoop=1;jettySize=auto;html=1;exitX=0.5;exitY=1;exitDx=0;exitDy=0;fontSize=17;fontColor=#000000;startArrow=none;edgeStyle=orthogonalEdgeStyle;startFill=0;endArrow=none;endFill=0;strokeColor=#000000;" parent="1" source="39" target="36" edge="1">
                    <mxGeometry relative="1" as="geometry"/>
                </mxCell>
                <mxCell id="35" value="editItem()" style="rounded=1;whiteSpace=wrap;html=1;fillStyle=auto;strokeColor=#000000;fontColor=#000000;fillColor=#ffffff;fontSize=13;fontStyle=1" parent="1" vertex="1">
                    <mxGeometry x="672" y="200" width="80" height="40" as="geometry"/>
                </mxCell>
                <mxCell id="36" value="&lt;p class=&quot;MsoNormal&quot;&gt;&lt;/p&gt;void editItem()&lt;span&gt;&lt;br&gt;&lt;/span&gt;" style="rounded=0;whiteSpace=wrap;html=1;fillStyle=auto;strokeColor=#000000;fontSize=11;fontColor=#000000;fillColor=#ffffff;align=left;verticalAlign=top;" parent="1" vertex="1">
                    <mxGeometry x="673" y="320" width="79" height="54" as="geometry"/>
                </mxCell>
                <mxCell id="37" value="" style="endArrow=classic;html=1;rounded=1;strokeWidth=1;fontSize=17;fontColor=#000000;startSize=6;endSize=4;entryX=1.026;entryY=0.435;entryDx=0;entryDy=0;entryPerimeter=0;exitX=-0.109;exitY=0.496;exitDx=0;exitDy=0;exitPerimeter=0;strokeColor=#000000;" parent="1" source="39" target="39" edge="1">
                    <mxGeometry width="50" height="50" relative="1" as="geometry">
                        <mxPoint x="672" y="290" as="sourcePoint"/>
                        <mxPoint x="762" y="270" as="targetPoint"/>
                        <Array as="points">
                            <mxPoint x="692" y="280"/>
                            <mxPoint x="699" y="290"/>
                            <mxPoint x="722" y="290"/>
                            <mxPoint x="732" y="280"/>
                        </Array>
                    </mxGeometry>
                </mxCell>
                <mxCell id="38" value="" style="rounded=0;orthogonalLoop=1;jettySize=auto;html=1;exitX=0.5;exitY=1;exitDx=0;exitDy=0;fontSize=17;fontColor=#000000;endArrow=none;edgeStyle=orthogonalEdgeStyle;startArrow=none;startFill=0;endFill=0;strokeColor=#000000;" parent="1" source="35" target="39" edge="1">
                    <mxGeometry relative="1" as="geometry">
                        <mxPoint x="764" y="240" as="sourcePoint"/>
                        <mxPoint x="773" y="320" as="targetPoint"/>
                    </mxGeometry>
                </mxCell>
                <mxCell id="39" value="" style="html=1;whiteSpace=wrap;aspect=fixed;shape=isoRectangle;fillStyle=auto;strokeColor=#000000;fontSize=17;fontColor=#000000;fillColor=#ffffff;" parent="1" vertex="1">
                    <mxGeometry x="702" y="270" width="20" height="12" as="geometry"/>
                </mxCell>
                <mxCell id="40" style="rounded=0;orthogonalLoop=1;jettySize=auto;html=1;exitX=0.5;exitY=1;exitDx=0;exitDy=0;fontSize=17;fontColor=#000000;startArrow=none;edgeStyle=orthogonalEdgeStyle;startFill=0;endArrow=none;endFill=0;strokeColor=#000000;" parent="1" source="45" target="42" edge="1">
                    <mxGeometry relative="1" as="geometry"/>
                </mxCell>
                <mxCell id="41" value="getChoice()" style="rounded=1;whiteSpace=wrap;html=1;fillStyle=auto;strokeColor=#000000;fontColor=#000000;fillColor=#ffffff;fontSize=13;fontStyle=1" parent="1" vertex="1">
                    <mxGeometry x="767" y="200" width="88" height="40" as="geometry"/>
                </mxCell>
                <mxCell id="42" value="&lt;p class=&quot;MsoNormal&quot;&gt;&lt;/p&gt;void getChoice()&lt;span&gt;&lt;br&gt;&lt;/span&gt;" style="rounded=0;whiteSpace=wrap;html=1;fillStyle=auto;strokeColor=#000000;fontSize=11;fontColor=#000000;fillColor=#ffffff;align=left;verticalAlign=top;" parent="1" vertex="1">
                    <mxGeometry x="772" y="320" width="79" height="54" as="geometry"/>
                </mxCell>
                <mxCell id="43" value="" style="endArrow=classic;html=1;rounded=1;strokeWidth=1;fontSize=17;fontColor=#000000;startSize=6;endSize=4;entryX=1.026;entryY=0.435;entryDx=0;entryDy=0;entryPerimeter=0;exitX=-0.109;exitY=0.496;exitDx=0;exitDy=0;exitPerimeter=0;strokeColor=#000000;" parent="1" source="45" target="45" edge="1">
                    <mxGeometry width="50" height="50" relative="1" as="geometry">
                        <mxPoint x="771" y="290" as="sourcePoint"/>
                        <mxPoint x="861" y="270" as="targetPoint"/>
                        <Array as="points">
                            <mxPoint x="791" y="280"/>
                            <mxPoint x="798" y="290"/>
                            <mxPoint x="821" y="290"/>
                            <mxPoint x="831" y="280"/>
                        </Array>
                    </mxGeometry>
                </mxCell>
                <mxCell id="44" value="" style="rounded=0;orthogonalLoop=1;jettySize=auto;html=1;exitX=0.5;exitY=1;exitDx=0;exitDy=0;fontSize=17;fontColor=#000000;endArrow=none;edgeStyle=orthogonalEdgeStyle;startArrow=none;startFill=0;endFill=0;strokeColor=#000000;" parent="1" source="41" target="45" edge="1">
                    <mxGeometry relative="1" as="geometry">
                        <mxPoint x="863" y="240" as="sourcePoint"/>
                        <mxPoint x="872" y="320" as="targetPoint"/>
                    </mxGeometry>
                </mxCell>
                <mxCell id="45" value="" style="html=1;whiteSpace=wrap;aspect=fixed;shape=isoRectangle;fillStyle=auto;strokeColor=#000000;fontSize=17;fontColor=#000000;fillColor=#ffffff;" parent="1" vertex="1">
                    <mxGeometry x="801" y="270" width="20" height="12" as="geometry"/>
                </mxCell>
                <mxCell id="46" style="rounded=0;orthogonalLoop=1;jettySize=auto;html=1;exitX=0.5;exitY=1;exitDx=0;exitDy=0;fontSize=17;fontColor=#000000;startArrow=none;edgeStyle=orthogonalEdgeStyle;startFill=0;endArrow=none;endFill=0;strokeColor=#000000;" parent="1" source="51" target="48" edge="1">
                    <mxGeometry relative="1" as="geometry"/>
                </mxCell>
                <mxCell id="47" value="&lt;span style=&quot;text-indent: -24px;&quot;&gt;~IntList()&lt;/span&gt;&lt;br style=&quot;text-indent: -24px;&quot;&gt;&lt;span style=&quot;text-indent: -24px; font-weight: normal;&quot;&gt;Destruct&lt;/span&gt;" style="rounded=1;whiteSpace=wrap;html=1;fillStyle=auto;strokeColor=#000000;fontColor=#000000;fillColor=#ffffff;fontSize=13;fontStyle=1" parent="1" vertex="1">
                    <mxGeometry x="189" y="200" width="62" height="40" as="geometry"/>
                </mxCell>
                <mxCell id="48" value="&lt;p class=&quot;MsoNormal&quot;&gt;&lt;/p&gt;&lt;span style=&quot;font-size: 13px; text-align: center; text-indent: -24px; font-weight: normal;&quot;&gt;~IntList()&lt;/span&gt;" style="rounded=0;whiteSpace=wrap;html=1;fillStyle=auto;strokeColor=#000000;fontSize=11;fontColor=#000000;fillColor=#ffffff;align=left;verticalAlign=top;fontStyle=1" parent="1" vertex="1">
                    <mxGeometry x="189" y="320" width="63" height="49" as="geometry"/>
                </mxCell>
                <mxCell id="49" value="" style="endArrow=classic;html=1;rounded=1;strokeWidth=1;fontSize=17;fontColor=#000000;startSize=6;endSize=4;entryX=1.026;entryY=0.435;entryDx=0;entryDy=0;entryPerimeter=0;exitX=-0.109;exitY=0.496;exitDx=0;exitDy=0;exitPerimeter=0;strokeColor=#000000;" parent="1" source="51" target="51" edge="1">
                    <mxGeometry width="50" height="50" relative="1" as="geometry">
                        <mxPoint x="180" y="290" as="sourcePoint"/>
                        <mxPoint x="270" y="270" as="targetPoint"/>
                        <Array as="points">
                            <mxPoint x="200" y="280"/>
                            <mxPoint x="207" y="290"/>
                            <mxPoint x="230" y="290"/>
                            <mxPoint x="240" y="280"/>
                        </Array>
                    </mxGeometry>
                </mxCell>
                <mxCell id="50" value="" style="rounded=0;orthogonalLoop=1;jettySize=auto;html=1;exitX=0.5;exitY=1;exitDx=0;exitDy=0;fontSize=17;fontColor=#000000;endArrow=none;edgeStyle=orthogonalEdgeStyle;startArrow=none;startFill=0;endFill=0;strokeColor=#000000;" parent="1" source="47" target="51" edge="1">
                    <mxGeometry relative="1" as="geometry">
                        <mxPoint x="272" y="240" as="sourcePoint"/>
                        <mxPoint x="281" y="320" as="targetPoint"/>
                    </mxGeometry>
                </mxCell>
                <mxCell id="51" value="" style="html=1;whiteSpace=wrap;aspect=fixed;shape=isoRectangle;fillStyle=auto;strokeColor=#000000;fontSize=17;fontColor=#000000;fillColor=#ffffff;" parent="1" vertex="1">
                    <mxGeometry x="210" y="270" width="20" height="12" as="geometry"/>
                </mxCell>
                <mxCell id="52" style="rounded=0;orthogonalLoop=1;jettySize=auto;html=1;exitX=0.5;exitY=1;exitDx=0;exitDy=0;fontSize=17;fontColor=#000000;startArrow=none;edgeStyle=orthogonalEdgeStyle;startFill=0;endArrow=none;endFill=0;strokeColor=#000000;" parent="1" source="57" target="54" edge="1">
                    <mxGeometry relative="1" as="geometry"/>
                </mxCell>
                <mxCell id="53" value="loadingAnimation()" style="rounded=1;whiteSpace=wrap;html=1;fillStyle=auto;strokeColor=#000000;fontColor=#000000;fillColor=#ffffff;fontSize=13;fontStyle=1" parent="1" vertex="1">
                    <mxGeometry x="871" y="200" width="130" height="40" as="geometry"/>
                </mxCell>
                <mxCell id="54" value="&lt;p class=&quot;MsoNormal&quot;&gt;&lt;/p&gt;void&lt;br&gt;loadingAnimation&lt;br&gt;(int seconds)&lt;span&gt;&lt;br&gt;&lt;/span&gt;" style="rounded=0;whiteSpace=wrap;html=1;fillStyle=auto;strokeColor=#000000;fontSize=11;fontColor=#000000;fillColor=#ffffff;align=left;verticalAlign=top;" parent="1" vertex="1">
                    <mxGeometry x="879" y="320" width="115" height="60" as="geometry"/>
                </mxCell>
                <mxCell id="55" value="" style="endArrow=classic;html=1;rounded=1;strokeWidth=1;fontSize=17;fontColor=#000000;startSize=6;endSize=4;entryX=1.026;entryY=0.435;entryDx=0;entryDy=0;entryPerimeter=0;exitX=-0.109;exitY=0.496;exitDx=0;exitDy=0;exitPerimeter=0;strokeColor=#000000;" parent="1" source="57" target="57" edge="1">
                    <mxGeometry width="50" height="50" relative="1" as="geometry">
                        <mxPoint x="896" y="290" as="sourcePoint"/>
                        <mxPoint x="986" y="270" as="targetPoint"/>
                        <Array as="points">
                            <mxPoint x="916" y="280"/>
                            <mxPoint x="923" y="290"/>
                            <mxPoint x="946" y="290"/>
                            <mxPoint x="956" y="280"/>
                        </Array>
                    </mxGeometry>
                </mxCell>
                <mxCell id="56" value="" style="rounded=0;orthogonalLoop=1;jettySize=auto;html=1;exitX=0.5;exitY=1;exitDx=0;exitDy=0;fontSize=17;fontColor=#000000;endArrow=none;edgeStyle=orthogonalEdgeStyle;startArrow=none;startFill=0;endFill=0;strokeColor=#000000;" parent="1" source="53" target="57" edge="1">
                    <mxGeometry relative="1" as="geometry">
                        <mxPoint x="988" y="240" as="sourcePoint"/>
                        <mxPoint x="997" y="320" as="targetPoint"/>
                    </mxGeometry>
                </mxCell>
                <mxCell id="57" value="" style="html=1;whiteSpace=wrap;aspect=fixed;shape=isoRectangle;fillStyle=auto;strokeColor=#000000;fontSize=17;fontColor=#000000;fillColor=#ffffff;" parent="1" vertex="1">
                    <mxGeometry x="926" y="270" width="20" height="12" as="geometry"/>
                </mxCell>
                <mxCell id="65" style="edgeStyle=orthogonalEdgeStyle;html=1;exitX=0;exitY=0.25;exitDx=0;exitDy=0;entryX=0.5;entryY=0;entryDx=0;entryDy=0;strokeColor=#000000;" parent="1" source="AFJ6fUOBSR2v7E0Lf3oa-3" target="67" edge="1">
                    <mxGeometry relative="1" as="geometry">
                        <mxPoint x="245" y="45" as="sourcePoint"/>
                    </mxGeometry>
                </mxCell>
                <mxCell id="66" style="rounded=0;orthogonalLoop=1;jettySize=auto;html=1;exitX=0.5;exitY=1;exitDx=0;exitDy=0;fontSize=17;fontColor=#000000;startArrow=none;edgeStyle=orthogonalEdgeStyle;startFill=0;endArrow=none;endFill=0;strokeColor=#000000;" parent="1" source="71" target="68" edge="1">
                    <mxGeometry relative="1" as="geometry"/>
                </mxCell>
                <mxCell id="67" value="&lt;p&gt;&lt;span style=&quot;background-color: initial; text-indent: -0.25in;&quot;&gt;IntList()&lt;br&gt;&lt;span style=&quot;font-weight: normal;&quot;&gt;Def Const&lt;/span&gt;&lt;/span&gt;&lt;/p&gt;&lt;p&gt;&lt;/p&gt;" style="rounded=1;whiteSpace=wrap;html=1;fillStyle=auto;strokeColor=#000000;fontColor=#000000;fillColor=#ffffff;fontSize=13;fontStyle=1" parent="1" vertex="1">
                    <mxGeometry x="11" y="200" width="65" height="40" as="geometry"/>
                </mxCell>
                <mxCell id="68" value="&lt;p class=&quot;MsoNormal&quot;&gt;&lt;/p&gt;IntList()&lt;span&gt;&lt;br&gt;&lt;/span&gt;" style="rounded=0;whiteSpace=wrap;html=1;fillStyle=auto;strokeColor=#000000;fontSize=11;fontColor=#000000;fillColor=#ffffff;align=left;verticalAlign=top;" parent="1" vertex="1">
                    <mxGeometry x="16.5" y="323" width="53.5" height="50.95" as="geometry"/>
                </mxCell>
                <mxCell id="69" value="" style="endArrow=classic;html=1;rounded=1;strokeWidth=1;fontSize=17;fontColor=#000000;startSize=6;endSize=4;entryX=1.026;entryY=0.435;entryDx=0;entryDy=0;entryPerimeter=0;exitX=-0.109;exitY=0.496;exitDx=0;exitDy=0;exitPerimeter=0;strokeColor=#000000;" parent="1" source="71" target="71" edge="1">
                    <mxGeometry width="50" height="50" relative="1" as="geometry">
                        <mxPoint x="3.5" y="290" as="sourcePoint"/>
                        <mxPoint x="93.5" y="270" as="targetPoint"/>
                        <Array as="points">
                            <mxPoint x="23.5" y="280"/>
                            <mxPoint x="30.5" y="290"/>
                            <mxPoint x="53.5" y="290"/>
                            <mxPoint x="63.5" y="280"/>
                        </Array>
                    </mxGeometry>
                </mxCell>
                <mxCell id="70" value="" style="rounded=0;orthogonalLoop=1;jettySize=auto;html=1;exitX=0.5;exitY=1;exitDx=0;exitDy=0;fontSize=17;fontColor=#000000;endArrow=none;edgeStyle=orthogonalEdgeStyle;startArrow=none;startFill=0;endFill=0;strokeColor=#000000;" parent="1" source="67" target="71" edge="1">
                    <mxGeometry relative="1" as="geometry">
                        <mxPoint x="128.5" y="240" as="sourcePoint"/>
                        <mxPoint x="137.5" y="320" as="targetPoint"/>
                    </mxGeometry>
                </mxCell>
                <mxCell id="71" value="" style="html=1;whiteSpace=wrap;aspect=fixed;shape=isoRectangle;fillStyle=auto;strokeColor=#000000;fontSize=17;fontColor=#000000;fillColor=#ffffff;" parent="1" vertex="1">
                    <mxGeometry x="33.5" y="270" width="20" height="12" as="geometry"/>
                </mxCell>
                <mxCell id="72" style="edgeStyle=orthogonalEdgeStyle;html=1;exitX=1;exitY=0.25;exitDx=0;exitDy=0;strokeColor=#000000;" parent="1" target="74" edge="1">
                    <mxGeometry relative="1" as="geometry">
                        <mxPoint x="862" y="45" as="sourcePoint"/>
                    </mxGeometry>
                </mxCell>
                <mxCell id="73" style="rounded=0;orthogonalLoop=1;jettySize=auto;html=1;exitX=0.5;exitY=1;exitDx=0;exitDy=0;fontSize=17;fontColor=#000000;startArrow=none;edgeStyle=orthogonalEdgeStyle;startFill=0;endArrow=none;endFill=0;strokeColor=#000000;" parent="1" source="78" target="75" edge="1">
                    <mxGeometry relative="1" as="geometry"/>
                </mxCell>
                <mxCell id="74" value="calcTotal()" style="rounded=1;whiteSpace=wrap;html=1;fillStyle=auto;strokeColor=#000000;fontColor=#000000;fillColor=#ffffff;fontSize=13;fontStyle=1" parent="1" vertex="1">
                    <mxGeometry x="1013" y="200" width="80" height="40" as="geometry"/>
                </mxCell>
                <mxCell id="75" value="&lt;p class=&quot;MsoNormal&quot;&gt;&lt;/p&gt;void&lt;br&gt;calcTotal()&lt;span&gt;&lt;br&gt;&lt;/span&gt;" style="rounded=0;whiteSpace=wrap;html=1;fillStyle=auto;strokeColor=#000000;fontSize=11;fontColor=#000000;fillColor=#ffffff;align=left;verticalAlign=top;" parent="1" vertex="1">
                    <mxGeometry x="1014" y="320" width="79" height="54" as="geometry"/>
                </mxCell>
                <mxCell id="76" value="" style="endArrow=classic;html=1;rounded=1;strokeWidth=1;fontSize=17;fontColor=#000000;startSize=6;endSize=4;entryX=1.026;entryY=0.435;entryDx=0;entryDy=0;entryPerimeter=0;exitX=-0.109;exitY=0.496;exitDx=0;exitDy=0;exitPerimeter=0;strokeColor=#000000;" parent="1" source="78" target="78" edge="1">
                    <mxGeometry width="50" height="50" relative="1" as="geometry">
                        <mxPoint x="1013" y="290" as="sourcePoint"/>
                        <mxPoint x="1103" y="270" as="targetPoint"/>
                        <Array as="points">
                            <mxPoint x="1033" y="280"/>
                            <mxPoint x="1040" y="290"/>
                            <mxPoint x="1063" y="290"/>
                            <mxPoint x="1073" y="280"/>
                        </Array>
                    </mxGeometry>
                </mxCell>
                <mxCell id="77" value="" style="rounded=0;orthogonalLoop=1;jettySize=auto;html=1;exitX=0.5;exitY=1;exitDx=0;exitDy=0;fontSize=17;fontColor=#000000;endArrow=none;edgeStyle=orthogonalEdgeStyle;startArrow=none;startFill=0;endFill=0;strokeColor=#000000;" parent="1" source="74" target="78" edge="1">
                    <mxGeometry relative="1" as="geometry">
                        <mxPoint x="1105" y="240" as="sourcePoint"/>
                        <mxPoint x="1114" y="320" as="targetPoint"/>
                    </mxGeometry>
                </mxCell>
                <mxCell id="78" value="" style="html=1;whiteSpace=wrap;aspect=fixed;shape=isoRectangle;fillStyle=auto;strokeColor=#000000;fontSize=17;fontColor=#000000;fillColor=#ffffff;" parent="1" vertex="1">
                    <mxGeometry x="1043" y="270" width="20" height="12" as="geometry"/>
                </mxCell>
                <mxCell id="93" style="edgeStyle=orthogonalEdgeStyle;html=1;strokeColor=#000000;exitX=0.358;exitY=1.006;exitDx=0;exitDy=0;exitPerimeter=0;" parent="1" source="AFJ6fUOBSR2v7E0Lf3oa-3" target="94" edge="1">
                    <mxGeometry relative="1" as="geometry">
                        <mxPoint x="539" y="141" as="sourcePoint"/>
                    </mxGeometry>
                </mxCell>
                <mxCell id="94" value="resetInventory()" style="rounded=1;whiteSpace=wrap;html=1;fillStyle=auto;strokeColor=#000000;fontColor=#000000;fillColor=#ffffff;fontSize=13;fontStyle=1" parent="1" vertex="1">
                    <mxGeometry x="411" y="200" width="106" height="40" as="geometry"/>
                </mxCell>
                <mxCell id="96" value="&lt;p class=&quot;MsoNormal&quot;&gt;&lt;/p&gt;void&lt;br&gt;&lt;div style=&quot;text-align: left;&quot;&gt;&lt;span style=&quot;background-color: initial; font-size: 13px; text-align: center;&quot;&gt;resetInventory&lt;/span&gt;&lt;span style=&quot;background-color: initial;&quot;&gt;()&lt;/span&gt;&lt;/div&gt;" style="rounded=0;whiteSpace=wrap;html=1;fillStyle=auto;strokeColor=#000000;fontSize=11;fontColor=#000000;fillColor=#ffffff;align=left;verticalAlign=top;" parent="1" vertex="1">
                    <mxGeometry x="409" y="320" width="107" height="59" as="geometry"/>
                </mxCell>
                <mxCell id="107" style="rounded=0;orthogonalLoop=1;jettySize=auto;html=1;exitX=0.5;exitY=1;exitDx=0;exitDy=0;fontSize=17;fontColor=#000000;startArrow=none;edgeStyle=orthogonalEdgeStyle;startFill=0;endArrow=none;endFill=0;strokeColor=#000000;" parent="1" source="110" edge="1">
                    <mxGeometry relative="1" as="geometry">
                        <mxPoint x="465.4705882352944" y="321" as="targetPoint"/>
                    </mxGeometry>
                </mxCell>
                <mxCell id="108" value="" style="endArrow=classic;html=1;rounded=1;strokeWidth=1;fontSize=17;fontColor=#000000;startSize=6;endSize=4;entryX=1.026;entryY=0.435;entryDx=0;entryDy=0;entryPerimeter=0;exitX=-0.109;exitY=0.496;exitDx=0;exitDy=0;exitPerimeter=0;strokeColor=#000000;" parent="1" source="110" target="110" edge="1">
                    <mxGeometry width="50" height="50" relative="1" as="geometry">
                        <mxPoint x="425" y="291" as="sourcePoint"/>
                        <mxPoint x="515" y="271" as="targetPoint"/>
                        <Array as="points">
                            <mxPoint x="445" y="281"/>
                            <mxPoint x="452" y="291"/>
                            <mxPoint x="475" y="291"/>
                            <mxPoint x="485" y="281"/>
                        </Array>
                    </mxGeometry>
                </mxCell>
                <mxCell id="109" value="" style="rounded=0;orthogonalLoop=1;jettySize=auto;html=1;exitX=0.5;exitY=1;exitDx=0;exitDy=0;fontSize=17;fontColor=#000000;endArrow=none;edgeStyle=orthogonalEdgeStyle;startArrow=none;startFill=0;endFill=0;strokeColor=#000000;" parent="1" target="110" edge="1">
                    <mxGeometry relative="1" as="geometry">
                        <mxPoint x="465" y="241" as="sourcePoint"/>
                        <mxPoint x="526" y="321" as="targetPoint"/>
                    </mxGeometry>
                </mxCell>
                <mxCell id="110" value="" style="html=1;whiteSpace=wrap;aspect=fixed;shape=isoRectangle;fillStyle=auto;strokeColor=#000000;fontSize=17;fontColor=#000000;fillColor=#ffffff;" parent="1" vertex="1">
                    <mxGeometry x="455" y="271" width="20" height="12" as="geometry"/>
                </mxCell>
                <mxCell id="111" style="edgeStyle=orthogonalEdgeStyle;html=1;strokeColor=#000000;exitX=0.358;exitY=1.006;exitDx=0;exitDy=0;exitPerimeter=0;" parent="1" source="AFJ6fUOBSR2v7E0Lf3oa-3" target="94" edge="1">
                    <mxGeometry relative="1" as="geometry">
                        <mxPoint x="500.2999999999997" y="90.36000000000001" as="sourcePoint"/>
                        <mxPoint x="464.0588235294117" y="200" as="targetPoint"/>
                        <Array as="points">
                            <mxPoint x="500" y="145"/>
                            <mxPoint x="464" y="145"/>
                        </Array>
                    </mxGeometry>
                </mxCell>
                <mxCell id="112" style="edgeStyle=orthogonalEdgeStyle;html=1;strokeColor=#000000;exitX=0.53;exitY=1.006;exitDx=0;exitDy=0;exitPerimeter=0;" parent="1" source="AFJ6fUOBSR2v7E0Lf3oa-3" target="113" edge="1">
                    <mxGeometry relative="1" as="geometry">
                        <mxPoint x="631.2999999999997" y="90.36000000000001" as="sourcePoint"/>
                        <mxPoint x="595.0588235294117" y="200" as="targetPoint"/>
                    </mxGeometry>
                </mxCell>
                <mxCell id="113" value="resetInventory()" style="rounded=1;whiteSpace=wrap;html=1;fillStyle=auto;strokeColor=#000000;fontColor=#000000;fillColor=#ffffff;fontSize=13;fontStyle=1" parent="1" vertex="1">
                    <mxGeometry x="542" y="200" width="106" height="40" as="geometry"/>
                </mxCell>
                <mxCell id="114" value="&lt;p class=&quot;MsoNormal&quot;&gt;&lt;/p&gt;void&lt;br&gt;&lt;div style=&quot;text-align: left;&quot;&gt;&lt;span style=&quot;background-color: initial; font-size: 13px; text-align: center;&quot;&gt;eraseInventory&lt;/span&gt;&lt;span style=&quot;background-color: initial;&quot;&gt;()&lt;/span&gt;&lt;/div&gt;" style="rounded=0;whiteSpace=wrap;html=1;fillStyle=auto;strokeColor=#000000;fontSize=11;fontColor=#000000;fillColor=#ffffff;align=left;verticalAlign=top;" parent="1" vertex="1">
                    <mxGeometry x="540" y="320" width="107" height="56" as="geometry"/>
                </mxCell>
                <mxCell id="115" style="rounded=0;orthogonalLoop=1;jettySize=auto;html=1;exitX=0.5;exitY=1;exitDx=0;exitDy=0;fontSize=17;fontColor=#000000;startArrow=none;edgeStyle=orthogonalEdgeStyle;startFill=0;endArrow=none;endFill=0;strokeColor=#000000;" parent="1" source="118" edge="1">
                    <mxGeometry relative="1" as="geometry">
                        <mxPoint x="596.4705882352944" y="321" as="targetPoint"/>
                    </mxGeometry>
                </mxCell>
                <mxCell id="116" value="" style="endArrow=classic;html=1;rounded=1;strokeWidth=1;fontSize=17;fontColor=#000000;startSize=6;endSize=4;entryX=1.026;entryY=0.435;entryDx=0;entryDy=0;entryPerimeter=0;exitX=-0.109;exitY=0.496;exitDx=0;exitDy=0;exitPerimeter=0;strokeColor=#000000;" parent="1" source="118" target="118" edge="1">
                    <mxGeometry width="50" height="50" relative="1" as="geometry">
                        <mxPoint x="556" y="291" as="sourcePoint"/>
                        <mxPoint x="646" y="271" as="targetPoint"/>
                        <Array as="points">
                            <mxPoint x="576" y="281"/>
                            <mxPoint x="583" y="291"/>
                            <mxPoint x="606" y="291"/>
                            <mxPoint x="616" y="281"/>
                        </Array>
                    </mxGeometry>
                </mxCell>
                <mxCell id="117" value="" style="rounded=0;orthogonalLoop=1;jettySize=auto;html=1;exitX=0.5;exitY=1;exitDx=0;exitDy=0;fontSize=17;fontColor=#000000;endArrow=none;edgeStyle=orthogonalEdgeStyle;startArrow=none;startFill=0;endFill=0;strokeColor=#000000;" parent="1" target="118" edge="1">
                    <mxGeometry relative="1" as="geometry">
                        <mxPoint x="596" y="241" as="sourcePoint"/>
                        <mxPoint x="657" y="321" as="targetPoint"/>
                    </mxGeometry>
                </mxCell>
                <mxCell id="118" value="" style="html=1;whiteSpace=wrap;aspect=fixed;shape=isoRectangle;fillStyle=auto;strokeColor=#000000;fontSize=17;fontColor=#000000;fillColor=#ffffff;" parent="1" vertex="1">
                    <mxGeometry x="586" y="271" width="20" height="12" as="geometry"/>
                </mxCell>
                <mxCell id="119" style="rounded=0;orthogonalLoop=1;jettySize=auto;html=1;exitX=0.5;exitY=1;exitDx=0;exitDy=0;fontSize=17;fontColor=#000000;startArrow=none;edgeStyle=orthogonalEdgeStyle;startFill=0;endArrow=none;endFill=0;strokeColor=#000000;" edge="1" source="124" target="121" parent="1">
                    <mxGeometry relative="1" as="geometry"/>
                </mxCell>
                <mxCell id="120" value="&lt;span style=&quot;font-size:12.0pt;font-family:&amp;quot;Times New Roman&amp;quot;,serif;&lt;br/&gt;mso-fareast-font-family:&amp;quot;Times New Roman&amp;quot;;mso-ansi-language:EN-US;mso-fareast-language:&lt;br/&gt;EN-US;mso-bidi-language:AR-SA&quot;&gt;appendNode()&lt;/span&gt;" style="rounded=1;whiteSpace=wrap;html=1;fillStyle=auto;strokeColor=#000000;fontColor=#000000;fillColor=#ffffff;fontSize=13;fontStyle=1" vertex="1" parent="1">
                    <mxGeometry x="271" y="200" width="90" height="40" as="geometry"/>
                </mxCell>
                <mxCell id="121" value="&lt;p class=&quot;MsoNormal&quot;&gt;&lt;/p&gt;&lt;p&gt;&lt;span style=&quot;font-weight: normal;&quot;&gt;appendNode&lt;br&gt;&lt;span style=&quot;background-color: initial;&quot;&gt;(int&amp;nbsp;&lt;/span&gt;&lt;span style=&quot;background-color: initial;&quot;&gt;value)&lt;/span&gt;&lt;/span&gt;&lt;/p&gt;" style="rounded=0;whiteSpace=wrap;html=1;fillStyle=auto;strokeColor=#000000;fontSize=11;fontColor=#000000;fillColor=#ffffff;align=left;verticalAlign=top;fontStyle=1" vertex="1" parent="1">
                    <mxGeometry x="285" y="320" width="81" height="49" as="geometry"/>
                </mxCell>
                <mxCell id="122" value="" style="endArrow=classic;html=1;rounded=1;strokeWidth=1;fontSize=17;fontColor=#000000;startSize=6;endSize=4;entryX=1.026;entryY=0.435;entryDx=0;entryDy=0;entryPerimeter=0;exitX=-0.109;exitY=0.496;exitDx=0;exitDy=0;exitPerimeter=0;strokeColor=#000000;" edge="1" source="124" target="124" parent="1">
                    <mxGeometry width="50" height="50" relative="1" as="geometry">
                        <mxPoint x="276" y="290" as="sourcePoint"/>
                        <mxPoint x="366" y="270" as="targetPoint"/>
                        <Array as="points">
                            <mxPoint x="296" y="280"/>
                            <mxPoint x="303" y="290"/>
                            <mxPoint x="326" y="290"/>
                            <mxPoint x="336" y="280"/>
                        </Array>
                    </mxGeometry>
                </mxCell>
                <mxCell id="123" value="" style="rounded=0;orthogonalLoop=1;jettySize=auto;html=1;exitX=0.5;exitY=1;exitDx=0;exitDy=0;fontSize=17;fontColor=#000000;endArrow=none;edgeStyle=orthogonalEdgeStyle;startArrow=none;startFill=0;endFill=0;strokeColor=#000000;" edge="1" source="120" target="124" parent="1">
                    <mxGeometry relative="1" as="geometry">
                        <mxPoint x="368" y="240" as="sourcePoint"/>
                        <mxPoint x="377" y="320" as="targetPoint"/>
                    </mxGeometry>
                </mxCell>
                <mxCell id="124" value="" style="html=1;whiteSpace=wrap;aspect=fixed;shape=isoRectangle;fillStyle=auto;strokeColor=#000000;fontSize=17;fontColor=#000000;fillColor=#ffffff;" vertex="1" parent="1">
                    <mxGeometry x="306" y="270" width="20" height="12" as="geometry"/>
                </mxCell>
                <mxCell id="125" style="edgeStyle=orthogonalEdgeStyle;html=1;exitX=0;exitY=1;exitDx=0;exitDy=0;strokeColor=#000000;" edge="1" target="120" parent="1" source="AFJ6fUOBSR2v7E0Lf3oa-3">
                    <mxGeometry relative="1" as="geometry">
                        <mxPoint x="454" y="75" as="sourcePoint"/>
                    </mxGeometry>
                </mxCell>
            </root>
        </mxGraphModel>
    </diagram>
</mxfile>